<svg width="594" height="99" viewBox="0 0 594 99" fill="none" xmlns="http://www.w3.org/2000/svg">
<path d="M593.718 0.0401783L505.278 0.0321328L534.115 12.2735L516.571 55.6123L470.633 0L416.021 0.0482237L376.305 98.284L464.607 98.292L435.918 86.115L450.017 51.4246L448.343 32.8497L506.203 98.3L587.712 98.292L558.944 86.0828L593.718 0.0401783Z" fill="white"/>
<path d="M159.729 61.0943L189.856 51.6259L205.579 12.2818L176.525 0.0405273H5.93672L34.7734 12.2818L0 98.2763L88.371 98.3003L59.6426 86.1073L68.139 65.3301L104.911 65.3542L123.784 98.2843L202.852 98.3003L174.064 86.0832L159.729 61.0943ZM137.046 46.5622L75.6312 46.5542L83.921 26.2834L69.8816 18.8164L148.486 18.7923L137.046 46.5622Z" fill="white"/>
<path d="M312.419 0.0322266L341.079 12.2012L313.749 79.5564L235.4 79.476C242.026 76.6227 248.642 74.5329 255.287 71.9689L284.616 0.040272H196.088L224.875 12.2575L195.064 86.0186L223.911 98.268L327.286 98.2519L365.928 86.0508L400.702 0.0322266H312.419Z" fill="white"/>
</svg>
